<?xml version="1.0" encoding="utf-8"?>
<!-- Generator: Adobe Illustrator 22.0.1, SVG Export Plug-In . SVG Version: 6.00 Build 0)  -->
<svg version="1.1" id="Layer_1" xmlns="http://www.w3.org/2000/svg" xmlns:xlink="http://www.w3.org/1999/xlink" x="0px" y="0px"
	 viewBox="0 0 120 120" style="enable-background:new 0 0 120 120;" xml:space="preserve">
<path d="M 6.039062 67.558594 C 6.039062 72.878906 7.878906 77.480469 11.601562 81.320312 C 15.320312 85.160156 19.839844 87.199219 25.238281 87.441406 C 25.679688 87.441406 25.921875 87.199219 25.921875 86.761719 L 25.921875 81.398438 C 25.921875 80.960938 25.679688 80.71875 25.238281 80.71875 C 21.800781 80.558594 18.878906 79.160156 16.480469 76.601562 C 14.078125 74.039062 12.878906 71 12.878906 67.558594 C 12.878906 64.28125 14 61.398438 16.28125 58.921875 C 18.558594 56.441406 21.359375 55.039062 24.679688 54.640625 L 26.800781 54.441406 C 27.320312 54.441406 27.601562 54.199219 27.601562 53.761719 L 27.878906 51.601562 C 28.320312 47.28125 30.121094 43.640625 33.359375 40.71875 C 36.601562 37.800781 40.398438 36.320312 44.761719 36.320312 C 49.121094 36.320312 52.921875 37.800781 56.199219 40.71875 C 59.480469 43.640625 61.320312 47.28125 61.800781 51.601562 L 62.078125 53.878906 C 62.078125 54.359375 62.320312 54.640625 62.761719 54.640625 L 69.238281 54.640625 C 72.800781 54.640625 75.839844 55.921875 78.441406 58.480469 C 81.039062 61.039062 82.320312 64.039062 82.320312 67.558594 C 82.320312 71.039062 81.121094 74.039062 78.71875 76.601562 C 76.320312 79.160156 73.398438 80.519531 70 80.71875 C 69.519531 80.71875 69.238281 80.960938 69.238281 81.398438 L 69.238281 86.761719 C 69.238281 87.199219 69.480469 87.441406 70 87.441406 C 75.320312 87.28125 79.839844 85.238281 83.558594 81.398438 C 87.28125 77.519531 89.121094 72.921875 89.121094 67.601562 C 89.121094 64.71875 88.558594 62.039062 87.441406 59.558594 C 90.558594 55.679688 92.121094 51.28125 92.121094 46.320312 C 92.121094 42.519531 91.160156 39 89.28125 35.761719 C 87.398438 32.519531 84.839844 29.960938 81.601562 28.078125 C 78.359375 26.199219 74.878906 25.28125 71.121094 25.28125 C 64.878906 25.28125 59.71875 27.601562 55.601562 32.238281 C 52.320312 30.480469 48.71875 29.601562 44.761719 29.601562 C 39.121094 29.601562 34.078125 31.359375 29.71875 34.878906 C 25.359375 38.398438 22.558594 42.878906 21.320312 48.320312 C 16.878906 49.359375 13.238281 51.679688 10.359375 55.28125 C 7.480469 58.878906 6.039062 62.960938 6.039062 67.558594 Z M 27.640625 95 C 27.640625 95.679688 27.839844 96.320312 28.28125 96.960938 C 28.71875 97.601562 29.359375 98.039062 30.238281 98.28125 C 30.679688 98.359375 31.039062 98.441406 31.320312 98.441406 C 32.878906 98.441406 33.921875 97.601562 34.398438 95.878906 L 40.71875 72.359375 C 41 71.398438 40.878906 70.519531 40.398438 69.679688 C 39.921875 68.839844 39.199219 68.359375 38.28125 68.160156 C 37.398438 67.878906 36.558594 67.960938 35.761719 68.441406 C 34.960938 68.878906 34.398438 69.558594 34.121094 70.480469 L 27.800781 94.121094 C 27.71875 94.640625 27.640625 94.921875 27.640625 95 Z M 38.078125 107.320312 C 38.078125 108.078125 38.28125 108.761719 38.679688 109.398438 C 39.078125 110.039062 39.761719 110.441406 40.761719 110.601562 C 41.199219 110.679688 41.558594 110.761719 41.800781 110.761719 C 42.441406 110.761719 43.039062 110.519531 43.601562 110.078125 C 44.160156 109.601562 44.519531 108.960938 44.679688 108.160156 L 54.28125 72.441406 C 54.519531 71.519531 54.441406 70.640625 54 69.878906 C 53.558594 69.121094 52.878906 68.558594 52 68.28125 C 51.078125 68 50.199219 68.078125 49.398438 68.558594 C 48.601562 69 48.039062 69.679688 47.800781 70.601562 L 38.199219 106.320312 C 38.121094 106.921875 38.078125 107.28125 38.078125 107.320312 Z M 39.761719 18.398438 C 39.761719 19.359375 40.078125 20.160156 40.761719 20.839844 L 43.359375 23.480469 C 44.121094 24.078125 44.960938 24.359375 45.839844 24.359375 C 46.679688 24.359375 47.480469 24.039062 48.160156 23.441406 C 48.839844 22.800781 49.199219 22.039062 49.199219 21.078125 C 49.199219 20.121094 48.878906 19.238281 48.238281 18.519531 L 45.679688 15.921875 C 44.960938 15.238281 44.160156 14.921875 43.28125 14.921875 C 42.320312 14.921875 41.480469 15.28125 40.800781 15.960938 C 40.121094 16.640625 39.761719 17.480469 39.761719 18.398438 Z M 54.679688 95.078125 C 54.679688 95.71875 54.878906 96.359375 55.28125 96.960938 C 55.679688 97.558594 56.320312 98 57.121094 98.238281 C 57.558594 98.320312 57.921875 98.398438 58.121094 98.398438 C 58.800781 98.398438 59.480469 98.199219 60.078125 97.800781 C 60.679688 97.398438 61.078125 96.761719 61.28125 95.839844 L 67.601562 72.320312 C 67.839844 71.398438 67.761719 70.519531 67.320312 69.761719 C 66.878906 68.960938 66.199219 68.441406 65.320312 68.160156 C 64.359375 67.878906 63.519531 67.960938 62.71875 68.441406 C 61.921875 68.878906 61.398438 69.558594 61.160156 70.480469 L 54.839844 94.121094 C 54.761719 94.71875 54.679688 95.039062 54.679688 95.078125 Z M 61.199219 36.121094 C 64.039062 33.441406 67.320312 32.121094 71.121094 32.121094 C 75.039062 32.121094 78.398438 33.519531 81.121094 36.28125 C 83.878906 39.039062 85.238281 42.398438 85.238281 46.359375 C 85.238281 48.839844 84.558594 51.320312 83.160156 53.761719 C 79.28125 49.878906 74.640625 47.960938 69.199219 47.960938 L 67.878906 47.960938 C 66.800781 43.238281 64.558594 39.320312 61.199219 36.121094 Z M 67.679688 15.121094 C 67.679688 16.039062 68 16.839844 68.679688 17.480469 C 69.359375 18.121094 70.160156 18.441406 71.121094 18.441406 C 72.039062 18.441406 72.839844 18.121094 73.480469 17.519531 C 74.121094 16.878906 74.441406 16.121094 74.441406 15.160156 L 74.441406 6.921875 C 74.441406 5.878906 74.121094 5.039062 73.519531 4.398438 C 72.878906 3.761719 72.121094 3.441406 71.160156 3.441406 C 70.160156 3.441406 69.320312 3.761719 68.679688 4.441406 C 68.039062 5.121094 67.71875 5.921875 67.71875 6.921875 L 67.71875 15.121094 Z M 89.800781 24.238281 C 89.800781 25.199219 90.160156 26 90.878906 26.601562 C 91.441406 27.238281 92.160156 27.558594 93.078125 27.640625 C 94 27.71875 94.839844 27.359375 95.558594 26.601562 L 101.320312 20.878906 C 102.039062 20.199219 102.359375 19.359375 102.359375 18.359375 C 102.359375 17.398438 102.039062 16.558594 101.359375 15.921875 C 100.679688 15.28125 99.878906 14.960938 98.921875 14.960938 C 98.078125 14.960938 97.320312 15.28125 96.601562 15.960938 L 90.878906 21.71875 C 90.160156 22.398438 89.800781 23.238281 89.800781 24.238281 Z M 93.039062 71.640625 C 93.039062 72.601562 93.359375 73.441406 94 74.160156 L 96.601562 76.679688 C 97.320312 77.238281 98.121094 77.519531 99 77.519531 L 99.078125 77.601562 C 100 77.601562 100.761719 77.28125 101.398438 76.640625 C 102.039062 76 102.359375 75.160156 102.359375 74.199219 C 102.359375 73.238281 102 72.480469 101.320312 71.878906 L 98.839844 69.238281 C 98.121094 68.601562 97.28125 68.28125 96.359375 68.28125 C 95.441406 68.28125 94.640625 68.601562 94 69.28125 C 93.359375 69.960938 93.039062 70.679688 93.039062 71.640625 Z M 98.878906 46.320312 C 98.878906 47.28125 99.238281 48.039062 99.921875 48.679688 C 100.640625 49.398438 101.441406 49.71875 102.398438 49.71875 L 110.519531 49.71875 C 111.480469 49.71875 112.28125 49.398438 112.960938 48.71875 C 113.640625 48.039062 113.960938 47.238281 113.960938 46.320312 C 113.960938 45.359375 113.640625 44.558594 112.960938 43.878906 C 112.28125 43.199219 111.480469 42.839844 110.519531 42.839844 L 102.398438 42.839844 C 101.441406 42.839844 100.640625 43.199219 99.921875 43.878906 C 99.199219 44.558594 98.878906 45.359375 98.878906 46.320312 Z M 98.878906 46.320312 "/>
</svg>
