<?xml version="1.0" encoding="utf-8"?>
<!-- Generator: Adobe Illustrator 22.0.1, SVG Export Plug-In . SVG Version: 6.00 Build 0)  -->
<svg version="1.1" id="Layer_1" xmlns="http://www.w3.org/2000/svg" xmlns:xlink="http://www.w3.org/1999/xlink" x="0px" y="0px"
	 viewBox="0 0 120 120" style="enable-background:new 0 0 120 120;" xml:space="preserve">
<path d="M 6.238281 67.601562 C 6.238281 72.921875 8.078125 77.480469 11.800781 81.320312 C 15.519531 85.160156 20.039062 87.199219 25.398438 87.441406 C 25.839844 87.441406 26.078125 87.199219 26.078125 86.761719 L 26.078125 81.28125 C 26.078125 80.800781 25.839844 80.558594 25.398438 80.558594 C 21.921875 80.28125 19 78.921875 16.640625 76.398438 C 14.28125 73.921875 13.078125 70.960938 13.078125 67.558594 C 13.078125 64.199219 14.199219 61.28125 16.480469 58.800781 C 18.761719 56.320312 21.519531 54.921875 24.878906 54.640625 L 26.960938 54.320312 C 27.480469 54.320312 27.761719 54.078125 27.761719 53.640625 L 28 51.601562 C 28.441406 47.28125 30.238281 43.640625 33.480469 40.761719 C 36.71875 37.839844 40.519531 36.398438 44.921875 36.398438 C 49.28125 36.398438 53.078125 37.839844 56.320312 40.761719 C 59.558594 43.640625 61.398438 47.28125 61.878906 51.640625 L 62.160156 53.960938 C 62.160156 54.398438 62.398438 54.640625 62.921875 54.640625 L 69.320312 54.640625 C 72.960938 54.640625 76.039062 55.921875 78.601562 58.441406 C 81.160156 60.960938 82.441406 64 82.441406 67.558594 C 82.441406 70.960938 81.238281 73.921875 78.878906 76.398438 C 76.519531 78.878906 73.601562 80.28125 70.121094 80.558594 C 69.601562 80.558594 69.320312 80.800781 69.320312 81.28125 L 69.320312 86.761719 C 69.320312 87.199219 69.601562 87.441406 70.121094 87.441406 C 75.441406 87.28125 79.960938 85.238281 83.640625 81.398438 C 87.320312 77.558594 89.160156 72.960938 89.160156 67.601562 C 89.160156 64.878906 88.519531 62.121094 87.28125 59.320312 C 90.398438 55.558594 92 51.199219 92 46.238281 C 92 43.398438 91.441406 40.679688 90.320312 38.078125 C 89.199219 35.480469 87.71875 33.28125 85.839844 31.398438 C 83.960938 29.519531 81.71875 28.039062 79.160156 26.921875 C 76.558594 25.839844 73.878906 25.28125 71.039062 25.28125 C 64.878906 25.28125 59.679688 27.601562 55.519531 32.199219 C 52.078125 30.558594 48.558594 29.71875 44.921875 29.71875 C 39.238281 29.71875 34.238281 31.441406 29.878906 34.921875 C 25.519531 38.398438 22.71875 42.878906 21.480469 48.398438 C 17.078125 49.441406 13.441406 51.71875 10.558594 55.320312 C 7.679688 58.921875 6.238281 63 6.238281 67.601562 Z M 36.238281 112.679688 L 37.441406 112.679688 L 58.71875 81.28125 C 58.878906 81.121094 58.921875 80.921875 58.800781 80.71875 C 58.679688 80.519531 58.519531 80.441406 58.238281 80.441406 L 49.519531 80.441406 L 58.71875 63.601562 C 59 63.039062 58.839844 62.71875 58.160156 62.71875 L 46.398438 62.71875 C 46.078125 62.71875 45.800781 62.921875 45.519531 63.28125 L 36.878906 86.160156 C 36.800781 86.71875 36.960938 87 37.441406 87 L 46.121094 87 Z M 39.761719 18.359375 C 39.761719 19.359375 40.078125 20.199219 40.71875 20.839844 L 43.359375 23.441406 C 45.039062 24.71875 46.640625 24.71875 48.199219 23.441406 C 48.839844 22.71875 49.160156 21.878906 49.160156 20.878906 C 49.160156 19.960938 48.839844 19.160156 48.199219 18.519531 L 45.640625 15.921875 C 44.878906 15.238281 44.078125 14.921875 43.160156 14.921875 C 42.238281 14.921875 41.441406 15.238281 40.761719 15.921875 C 40.078125 16.601562 39.761719 17.441406 39.761719 18.359375 Z M 61.121094 36.078125 C 63.839844 33.359375 67.160156 32 71.039062 32 C 74.960938 32 78.28125 33.398438 81 36.160156 C 83.761719 38.921875 85.121094 42.28125 85.121094 46.238281 C 85.121094 48.679688 84.441406 51.078125 83.078125 53.480469 C 79.160156 49.71875 74.558594 47.839844 69.238281 47.839844 L 68 47.839844 C 66.960938 43.28125 64.640625 39.359375 61.121094 36.078125 Z M 67.601562 14.921875 C 67.601562 15.921875 67.921875 16.761719 68.558594 17.398438 C 69.199219 18.039062 70 18.359375 71 18.359375 C 71.960938 18.359375 72.71875 18.039062 73.359375 17.398438 C 74 16.761719 74.28125 15.921875 74.28125 14.921875 L 74.28125 6.761719 C 74.28125 5.800781 73.960938 5.039062 73.359375 4.398438 C 72.71875 3.761719 71.960938 3.480469 71 3.480469 C 70.039062 3.480469 69.238281 3.800781 68.601562 4.398438 C 67.960938 5 67.601562 5.800781 67.601562 6.761719 Z M 89.679688 24.199219 C 89.679688 25.121094 90.039062 25.921875 90.761719 26.601562 C 91.480469 27.28125 92.238281 27.601562 92.960938 27.601562 C 93.601562 27.601562 94.441406 27.28125 95.441406 26.601562 L 101.199219 20.878906 C 101.878906 20.160156 102.199219 19.320312 102.199219 18.359375 C 102.199219 17.398438 101.878906 16.558594 101.199219 15.921875 C 100.519531 15.28125 99.71875 14.960938 98.800781 14.960938 C 97.921875 14.960938 97.160156 15.28125 96.480469 15.960938 L 90.761719 21.679688 C 90.039062 22.441406 89.679688 23.28125 89.679688 24.199219 Z M 92.921875 71.480469 C 92.921875 72.398438 93.238281 73.199219 93.878906 73.921875 L 96.480469 76.558594 C 97.121094 77.199219 97.921875 77.519531 98.800781 77.519531 C 99.761719 77.519531 100.558594 77.199219 101.199219 76.519531 C 101.878906 75.839844 102.199219 75 102.199219 74 C 102.199219 73.078125 101.878906 72.320312 101.199219 71.71875 L 98.71875 69.078125 C 97.960938 68.441406 97.160156 68.160156 96.238281 68.160156 C 95.320312 68.160156 94.519531 68.480469 93.878906 69.121094 C 93.238281 69.761719 92.921875 70.558594 92.921875 71.480469 Z M 98.71875 46.238281 C 98.71875 47.121094 99.078125 47.878906 99.761719 48.519531 C 100.441406 49.199219 101.238281 49.519531 102.160156 49.519531 L 110.320312 49.519531 C 111.28125 49.519531 112.078125 49.199219 112.761719 48.558594 C 113.441406 47.921875 113.761719 47.160156 113.761719 46.199219 C 113.761719 45.238281 113.398438 44.441406 112.71875 43.761719 C 112.039062 43.078125 111.238281 42.761719 110.320312 42.761719 L 102.160156 42.761719 C 101.238281 42.761719 100.441406 43.078125 99.761719 43.761719 C 99.078125 44.480469 98.71875 45.28125 98.71875 46.238281 Z M 98.71875 46.238281 "/>
</svg>
