<?xml version="1.0" encoding="utf-8"?>
<!-- Generator: Adobe Illustrator 22.0.1, SVG Export Plug-In . SVG Version: 6.00 Build 0)  -->
<svg version="1.1" id="Layer_1" xmlns="http://www.w3.org/2000/svg" xmlns:xlink="http://www.w3.org/1999/xlink" x="0px" y="0px"
	 viewBox="0 0 120 120" style="enable-background:new 0 0 120 120;" xml:space="preserve">
<path d="M 6.320312 67.71875 C 6.320312 71.160156 7.160156 74.398438 8.878906 77.359375 C 10.558594 80.320312 12.878906 82.71875 15.839844 84.519531 C 18.761719 86.320312 22 87.28125 25.441406 87.359375 C 25.878906 87.359375 26.121094 87.121094 26.121094 86.679688 L 26.121094 81.359375 C 26.121094 80.878906 25.878906 80.601562 25.441406 80.601562 C 22.039062 80.441406 19.121094 79.078125 16.71875 76.519531 C 14.320312 73.960938 13.121094 71.039062 13.121094 67.679688 C 13.121094 64.398438 14.238281 61.519531 16.519531 59.039062 C 18.800781 56.601562 21.558594 55.160156 24.921875 54.761719 L 27.039062 54.519531 C 27.519531 54.519531 27.761719 54.28125 27.761719 53.761719 L 28.078125 51.71875 C 28.519531 47.359375 30.320312 43.71875 33.519531 40.800781 C 36.71875 37.878906 40.519531 36.441406 44.921875 36.441406 C 49.28125 36.441406 53.078125 37.878906 56.320312 40.800781 C 59.601562 43.71875 61.441406 47.320312 61.839844 51.601562 L 62.121094 53.921875 C 62.121094 54.359375 62.359375 54.601562 62.800781 54.601562 L 69.238281 54.601562 C 72.839844 54.601562 75.921875 55.878906 78.480469 58.441406 C 81.039062 61 82.320312 64.039062 82.320312 67.601562 C 82.320312 70.960938 81.121094 73.878906 78.71875 76.441406 C 76.320312 78.960938 73.398438 80.320312 70.039062 80.519531 C 69.558594 80.519531 69.28125 80.761719 69.28125 81.28125 L 69.28125 86.601562 C 69.28125 87.039062 69.519531 87.28125 70.039062 87.28125 C 75.359375 87.121094 79.839844 85.121094 83.558594 81.28125 C 87.28125 77.441406 89.121094 72.921875 89.121094 67.640625 C 89.121094 64.601562 88.558594 61.921875 87.398438 59.519531 C 90.398438 55.800781 92 51.398438 92 46.398438 C 92 42.640625 91.078125 39.160156 89.199219 35.960938 C 87.320312 32.761719 84.761719 30.199219 81.558594 28.320312 C 78.359375 26.441406 74.839844 25.519531 71.078125 25.519531 C 64.921875 25.519531 59.761719 27.839844 55.601562 32.441406 C 52.359375 30.679688 48.761719 29.800781 44.839844 29.800781 C 39.199219 29.800781 34.238281 31.558594 29.878906 35.039062 C 25.519531 38.519531 22.761719 43 21.519531 48.398438 C 17.039062 49.519531 13.398438 51.839844 10.558594 55.398438 C 7.71875 59 6.320312 63.078125 6.320312 67.71875 Z M 31.679688 83.921875 C 31.679688 84.878906 32 85.679688 32.640625 86.359375 C 33.28125 87.039062 34.039062 87.359375 35 87.359375 C 35.921875 87.359375 36.71875 87.039062 37.359375 86.359375 C 38 85.679688 38.320312 84.878906 38.320312 83.921875 C 38.320312 83 38 82.238281 37.359375 81.601562 C 36.71875 80.960938 35.960938 80.640625 35 80.640625 C 34.078125 80.640625 33.28125 80.960938 32.640625 81.601562 C 32 82.238281 31.679688 83.039062 31.679688 83.921875 Z M 31.679688 98.441406 C 31.679688 99.28125 32 100.039062 32.640625 100.71875 C 33.359375 101.359375 34.121094 101.679688 34.960938 101.679688 C 35.921875 101.679688 36.679688 101.359375 37.320312 100.761719 C 37.960938 100.121094 38.238281 99.359375 38.238281 98.441406 C 38.238281 97.480469 37.921875 96.71875 37.28125 96.078125 C 36.640625 95.441406 35.878906 95.160156 34.921875 95.160156 C 34 95.160156 33.199219 95.480469 32.558594 96.078125 C 32 96.679688 31.679688 97.480469 31.679688 98.441406 Z M 39.878906 18.71875 C 39.878906 19.679688 40.199219 20.480469 40.839844 21.078125 L 43.480469 23.71875 C 44.121094 24.359375 44.839844 24.71875 45.601562 24.71875 C 46.441406 24.839844 47.238281 24.558594 48.039062 23.839844 C 48.839844 23.121094 49.238281 22.28125 49.238281 21.320312 C 49.238281 20.359375 48.921875 19.480469 48.28125 18.761719 L 45.71875 16.320312 C 45.121094 15.640625 44.359375 15.320312 43.398438 15.320312 C 42.398438 15.320312 41.558594 15.640625 40.878906 16.320312 C 40.199219 16.960938 39.878906 17.761719 39.878906 18.71875 Z M 44.398438 91.601562 C 44.398438 92.480469 44.71875 93.28125 45.359375 94 C 46 94.640625 46.800781 94.960938 47.679688 94.960938 C 48.640625 94.960938 49.441406 94.640625 50.078125 94 C 50.71875 93.359375 51.078125 92.558594 51.078125 91.601562 C 51.078125 90.679688 50.761719 89.878906 50.078125 89.199219 C 49.398438 88.519531 48.601562 88.199219 47.679688 88.199219 C 46.761719 88.199219 46 88.519531 45.359375 89.199219 C 44.71875 89.878906 44.398438 90.679688 44.398438 91.601562 Z M 44.398438 77.199219 C 44.398438 78.121094 44.71875 78.878906 45.359375 79.519531 C 46 80.160156 46.800781 80.480469 47.679688 80.480469 C 48.640625 80.480469 49.441406 80.160156 50.078125 79.519531 C 50.761719 78.878906 51.078125 78.121094 51.078125 77.160156 C 51.078125 76.238281 50.761719 75.441406 50.078125 74.800781 C 49.398438 74.160156 48.601562 73.839844 47.679688 73.839844 C 46.761719 73.839844 46 74.160156 45.359375 74.800781 C 44.71875 75.441406 44.398438 76.28125 44.398438 77.199219 Z M 44.398438 106.238281 C 44.398438 107.121094 44.71875 107.878906 45.359375 108.519531 C 46.039062 109.199219 46.800781 109.519531 47.679688 109.519531 C 48.640625 109.519531 49.441406 109.199219 50.078125 108.601562 C 50.761719 107.960938 51.078125 107.199219 51.078125 106.238281 C 51.078125 105.28125 50.761719 104.480469 50.078125 103.839844 C 49.398438 103.160156 48.601562 102.839844 47.679688 102.839844 C 46.800781 102.839844 46.039062 103.160156 45.359375 103.839844 C 44.71875 104.519531 44.398438 105.320312 44.398438 106.238281 Z M 57.28125 83.921875 C 57.28125 84.878906 57.601562 85.679688 58.238281 86.359375 C 58.878906 87.039062 59.679688 87.359375 60.601562 87.359375 C 61.519531 87.359375 62.320312 87.039062 62.960938 86.359375 C 63.601562 85.679688 63.921875 84.878906 63.921875 83.921875 C 63.921875 83 63.601562 82.238281 62.960938 81.601562 C 62.320312 80.960938 61.558594 80.640625 60.601562 80.640625 C 59.640625 80.640625 58.878906 80.960938 58.238281 81.601562 C 57.601562 82.238281 57.28125 83.039062 57.28125 83.921875 Z M 57.28125 98.441406 C 57.28125 99.28125 57.601562 100.039062 58.199219 100.71875 C 58.921875 101.359375 59.71875 101.679688 60.601562 101.679688 C 61.558594 101.679688 62.320312 101.359375 62.960938 100.761719 C 63.601562 100.121094 63.878906 99.359375 63.878906 98.441406 C 63.878906 97.480469 63.558594 96.71875 62.921875 96.078125 C 62.28125 95.441406 61.519531 95.160156 60.558594 95.160156 C 59.601562 95.160156 58.800781 95.480469 58.160156 96.121094 C 57.601562 96.71875 57.28125 97.519531 57.28125 98.441406 Z M 61.199219 36.238281 C 63.960938 33.601562 67.238281 32.28125 71.078125 32.28125 C 74.960938 32.28125 78.28125 33.679688 81 36.441406 C 83.761719 39.199219 85.121094 42.558594 85.121094 46.398438 C 85.121094 48.878906 84.441406 51.359375 83.078125 53.761719 C 79.28125 49.921875 74.640625 48 69.199219 48 L 67.921875 48 C 66.71875 43.320312 64.480469 39.398438 61.199219 36.238281 Z M 67.601562 15.359375 C 67.601562 16.28125 67.921875 17.078125 68.601562 17.679688 C 69.28125 18.28125 70.078125 18.601562 71.039062 18.601562 C 72 18.601562 72.761719 18.28125 73.398438 17.679688 C 74.039062 17.039062 74.320312 16.28125 74.320312 15.359375 L 74.320312 7.199219 C 74.320312 6.238281 74 5.441406 73.359375 4.761719 C 72.71875 4.078125 72 3.761719 71.078125 3.761719 C 70.160156 3.761719 69.359375 4.121094 68.679688 4.800781 C 68 5.480469 67.640625 6.28125 67.640625 7.199219 L 67.640625 15.359375 Z M 89.679688 24.441406 C 89.679688 25.359375 90 26.160156 90.679688 26.800781 C 91.28125 27.441406 92.039062 27.761719 92.921875 27.839844 C 93.800781 27.921875 94.640625 27.558594 95.398438 26.800781 L 101.121094 21.078125 C 101.839844 20.359375 102.160156 19.558594 102.160156 18.640625 C 102.160156 17.679688 101.800781 16.878906 101.121094 16.199219 C 100.441406 15.519531 99.640625 15.199219 98.71875 15.199219 C 97.839844 15.199219 97.078125 15.519531 96.398438 16.199219 L 90.679688 22.039062 C 90 22.679688 89.679688 23.480469 89.679688 24.441406 Z M 92.878906 71.640625 C 92.878906 72.640625 93.199219 73.480469 93.839844 74.121094 L 96.398438 76.640625 C 97.359375 77.28125 98.238281 77.601562 98.960938 77.601562 C 99.800781 77.601562 100.519531 77.238281 101.199219 76.558594 C 101.878906 75.878906 102.199219 75.039062 102.199219 74.121094 C 102.199219 73.199219 101.839844 72.441406 101.160156 71.800781 L 98.679688 69.199219 C 97.960938 68.558594 97.160156 68.238281 96.238281 68.238281 C 95.320312 68.238281 94.519531 68.558594 93.878906 69.238281 C 93.199219 69.878906 92.878906 70.679688 92.878906 71.640625 Z M 98.679688 46.398438 C 98.679688 47.359375 99.039062 48.121094 99.71875 48.761719 C 100.398438 49.480469 101.238281 49.839844 102.199219 49.839844 L 110.28125 49.839844 C 111.199219 49.839844 112 49.519531 112.679688 48.839844 C 113.359375 48.160156 113.679688 47.359375 113.679688 46.398438 C 113.679688 45.441406 113.359375 44.640625 112.679688 44 C 112 43.359375 111.199219 43 110.28125 43 L 102.199219 43 C 101.238281 43 100.441406 43.320312 99.71875 44 C 99 44.679688 98.679688 45.480469 98.679688 46.398438 Z M 98.679688 46.398438 "/>
</svg>
