<?xml version="1.0" encoding="utf-8"?>
<!-- Generator: Adobe Illustrator 22.0.1, SVG Export Plug-In . SVG Version: 6.00 Build 0)  -->
<svg version="1.1" id="Layer_1" xmlns="http://www.w3.org/2000/svg" xmlns:xlink="http://www.w3.org/1999/xlink" x="0px" y="0px"
	 viewBox="0 0 120 120" style="enable-background:new 0 0 120 120;" xml:space="preserve">
<path d="M 17.480469 58.480469 C 17.480469 57.519531 17.800781 56.679688 18.480469 56 C 19.160156 55.359375 20 55.039062 20.878906 55.039062 L 29.039062 55.039062 C 29.960938 55.039062 30.71875 55.359375 31.359375 56.039062 C 31.960938 56.71875 32.28125 57.519531 32.28125 58.480469 C 32.28125 59.441406 32 60.238281 31.398438 60.921875 C 30.800781 61.601562 30 61.921875 29.078125 61.921875 L 20.921875 61.921875 C 20 61.921875 19.199219 61.601562 18.519531 60.921875 C 17.839844 60.238281 17.480469 59.441406 17.480469 58.480469 Z M 28.921875 86.199219 C 28.921875 85.28125 29.238281 84.480469 29.839844 83.761719 L 35.71875 78.039062 C 36.320312 77.398438 37.121094 77.121094 38.078125 77.121094 C 39.039062 77.121094 39.839844 77.441406 40.480469 78.039062 C 41.121094 78.640625 41.441406 79.398438 41.441406 80.320312 C 41.441406 81.28125 41.121094 82.160156 40.480469 82.878906 L 34.800781 88.558594 C 33.160156 89.839844 31.519531 89.839844 29.878906 88.558594 C 29.238281 87.921875 28.921875 87.121094 28.921875 86.199219 Z M 28.921875 30.839844 C 28.921875 29.921875 29.238281 29.121094 29.839844 28.398438 C 30.640625 27.71875 31.480469 27.398438 32.398438 27.398438 C 33.28125 27.398438 34.078125 27.71875 34.761719 28.359375 L 40.480469 34.238281 C 41.121094 34.839844 41.441406 35.640625 41.441406 36.601562 C 41.441406 37.558594 41.121094 38.359375 40.480469 39 C 39.839844 39.640625 39.039062 39.960938 38.078125 39.960938 C 37.121094 39.960938 36.320312 39.640625 35.71875 39 L 29.878906 33.28125 C 29.238281 32.640625 28.921875 31.800781 28.921875 30.839844 Z M 39.121094 58.480469 C 39.121094 54.761719 40.039062 51.28125 41.921875 48.078125 C 43.800781 44.878906 46.320312 42.320312 49.558594 40.441406 C 52.800781 38.558594 56.238281 37.640625 59.960938 37.640625 C 62.761719 37.640625 65.441406 38.199219 68.039062 39.320312 C 70.601562 40.441406 72.839844 41.921875 74.679688 43.800781 C 76.558594 45.679688 78.039062 47.878906 79.121094 50.441406 C 80.199219 53 80.761719 55.71875 80.761719 58.519531 C 80.761719 62.28125 79.839844 65.761719 77.960938 68.960938 C 76.078125 72.160156 73.558594 74.679688 70.359375 76.558594 C 67.160156 78.441406 63.679688 79.359375 59.921875 79.359375 C 56.160156 79.359375 52.679688 78.441406 49.480469 76.558594 C 46.28125 74.679688 43.761719 72.160156 41.878906 68.960938 C 40.078125 65.71875 39.121094 62.238281 39.121094 58.480469 Z M 45.921875 58.480469 C 45.921875 62.398438 47.28125 65.71875 50.039062 68.480469 C 52.761719 71.238281 56.078125 72.640625 60 72.640625 C 63.921875 72.640625 67.238281 71.238281 70 68.480469 C 72.761719 65.71875 74.160156 62.398438 74.160156 58.480469 C 74.160156 54.640625 72.761719 51.359375 70 48.601562 C 67.238281 45.878906 63.921875 44.519531 60 44.519531 C 56.121094 44.519531 52.800781 45.878906 50.078125 48.601562 C 47.28125 51.359375 45.921875 54.640625 45.921875 58.480469 Z M 56.558594 89.601562 C 56.558594 88.640625 56.878906 87.839844 57.558594 87.199219 C 58.238281 86.558594 59.039062 86.238281 59.960938 86.238281 C 60.921875 86.238281 61.761719 86.558594 62.398438 87.199219 C 63.039062 87.839844 63.359375 88.640625 63.359375 89.601562 L 63.359375 97.558594 C 63.359375 98.519531 63.039062 99.359375 62.359375 100.039062 C 61.679688 100.71875 60.878906 101.039062 59.960938 101.039062 C 59.039062 101.039062 58.199219 100.71875 57.558594 100.039062 C 56.878906 99.359375 56.558594 98.519531 56.558594 97.558594 Z M 56.558594 27.601562 L 56.558594 19.441406 C 56.558594 18.519531 56.878906 17.71875 57.558594 17.039062 C 58.238281 16.359375 59.039062 16 60 16 C 60.960938 16 61.71875 16.320312 62.398438 17 C 63.078125 17.679688 63.398438 18.480469 63.398438 19.398438 L 63.398438 27.601562 C 63.398438 28.519531 63.078125 29.28125 62.398438 29.921875 C 61.71875 30.558594 60.921875 30.839844 60 30.839844 C 59.078125 30.839844 58.238281 30.519531 57.601562 29.921875 C 56.960938 29.320312 56.558594 28.519531 56.558594 27.601562 Z M 78.640625 80.320312 C 78.640625 79.398438 78.960938 78.640625 79.558594 78.078125 C 80.160156 77.441406 80.921875 77.160156 81.800781 77.160156 C 82.761719 77.160156 83.558594 77.480469 84.199219 78.078125 L 90.039062 83.800781 C 90.679688 84.480469 91 85.320312 91 86.238281 C 91 87.160156 90.679688 87.960938 90.039062 88.601562 C 88.441406 89.839844 86.839844 89.839844 85.238281 88.601562 L 79.558594 82.921875 C 78.960938 82.199219 78.640625 81.359375 78.640625 80.320312 Z M 78.640625 36.640625 C 78.640625 35.640625 78.960938 34.839844 79.558594 34.28125 L 85.238281 28.398438 C 85.921875 27.761719 86.71875 27.441406 87.601562 27.441406 C 88.558594 27.441406 89.359375 27.761719 90 28.441406 C 90.679688 29.121094 91 29.921875 91 30.839844 C 91 31.839844 90.679688 32.679688 90.039062 33.320312 L 84.199219 39.039062 C 83.480469 39.679688 82.679688 40 81.800781 40 C 80.878906 40 80.160156 39.679688 79.558594 39.039062 C 78.960938 38.398438 78.640625 37.601562 78.640625 36.640625 Z M 87.679688 58.480469 C 87.679688 57.519531 88 56.71875 88.640625 56 C 89.28125 55.359375 90.039062 55.039062 90.921875 55.039062 L 99 55.039062 C 99.921875 55.039062 100.71875 55.398438 101.398438 56.078125 C 102.078125 56.761719 102.441406 57.558594 102.441406 58.480469 C 102.441406 59.398438 102.078125 60.199219 101.398438 60.878906 C 100.71875 61.558594 99.921875 61.878906 99 61.878906 L 90.921875 61.878906 C 90 61.878906 89.199219 61.558594 88.601562 60.878906 C 88 60.199219 87.679688 59.441406 87.679688 58.480469 Z M 87.679688 58.480469 "/>
</svg>
