<?xml version="1.0" encoding="utf-8"?>
<!-- Generator: Adobe Illustrator 22.0.1, SVG Export Plug-In . SVG Version: 6.00 Build 0)  -->
<svg version="1.1" id="Layer_1" xmlns="http://www.w3.org/2000/svg" xmlns:xlink="http://www.w3.org/1999/xlink" x="0px" y="0px"
	 viewBox="0 0 120 120" style="enable-background:new 0 0 120 120;" xml:space="preserve">
<path d="M 10.480469 84.199219 C 10.480469 83.238281 10.800781 82.398438 11.480469 81.761719 C 12.160156 81.121094 13 80.800781 14 80.800781 L 88.679688 80.800781 C 89.679688 80.800781 90.480469 81.121094 91.121094 81.761719 C 91.761719 82.398438 92.078125 83.199219 92.078125 84.199219 C 92.078125 85.121094 91.761719 85.921875 91.078125 86.519531 C 90.398438 87.160156 89.601562 87.441406 88.679688 87.441406 L 14 87.441406 C 13 87.441406 12.160156 87.121094 11.480469 86.519531 C 10.800781 85.878906 10.480469 85.121094 10.480469 84.199219 Z M 20.960938 71.640625 C 20.960938 70.679688 21.320312 69.878906 22 69.238281 C 22.601562 68.640625 23.398438 68.320312 24.359375 68.320312 L 99.039062 68.320312 C 99.960938 68.320312 100.71875 68.640625 101.359375 69.28125 C 102 69.921875 102.28125 70.679688 102.28125 71.640625 C 102.28125 72.601562 101.960938 73.398438 101.359375 74.039062 C 100.71875 74.71875 99.960938 75.039062 99.039062 75.039062 L 24.359375 75.039062 C 23.398438 75.039062 22.601562 74.71875 21.960938 74.039062 C 21.28125 73.359375 20.960938 72.558594 20.960938 71.640625 Z M 21.480469 62.078125 C 21.480469 62.441406 21.679688 62.601562 22.078125 62.601562 L 27.800781 62.601562 C 28.039062 62.601562 28.320312 62.398438 28.601562 61.960938 C 29.558594 59.878906 30.960938 58.199219 32.839844 56.878906 C 34.71875 55.558594 36.800781 54.800781 39.039062 54.640625 L 41.238281 54.359375 C 41.679688 54.359375 41.921875 54.121094 41.921875 53.640625 L 42.199219 51.640625 C 42.640625 47.320312 44.441406 43.71875 47.679688 40.839844 C 50.921875 37.960938 54.71875 36.519531 59.078125 36.519531 C 63.398438 36.519531 67.160156 37.960938 70.398438 40.800781 C 73.601562 43.640625 75.441406 47.238281 75.878906 51.519531 L 76.199219 53.800781 C 76.199219 54.238281 76.480469 54.480469 77 54.480469 L 83.359375 54.480469 C 85.921875 54.480469 88.28125 55.160156 90.398438 56.558594 C 92.519531 57.960938 94.078125 59.761719 95.121094 62.039062 C 95.398438 62.480469 95.679688 62.679688 95.960938 62.679688 L 101.679688 62.679688 C 102.160156 62.679688 102.359375 62.398438 102.238281 61.761719 C 101.078125 57.679688 98.71875 54.320312 95.28125 51.71875 C 91.800781 49.121094 87.839844 47.839844 83.398438 47.839844 L 82.121094 47.839844 C 80.800781 42.519531 78 38.160156 73.71875 34.761719 C 69.441406 31.359375 64.601562 29.679688 59.121094 29.679688 C 53.519531 29.679688 48.558594 31.441406 44.199219 34.960938 C 39.839844 38.480469 37.078125 42.960938 35.839844 48.398438 C 32.441406 49.199219 29.441406 50.800781 26.878906 53.238281 C 24.320312 55.679688 22.519531 58.558594 21.519531 61.960938 L 21.519531 61.800781 C 21.480469 61.800781 21.480469 61.921875 21.480469 62.078125 Z M 27.921875 96.441406 C 27.921875 95.480469 28.28125 94.71875 28.960938 94.078125 C 29.558594 93.480469 30.359375 93.160156 31.359375 93.160156 L 106.078125 93.160156 C 107.039062 93.160156 107.839844 93.480469 108.480469 94.078125 C 109.160156 94.71875 109.480469 95.480469 109.480469 96.398438 C 109.480469 97.359375 109.160156 98.160156 108.480469 98.839844 C 107.800781 99.519531 107 99.839844 106.078125 99.839844 L 31.359375 99.839844 C 30.441406 99.839844 29.640625 99.480469 28.960938 98.800781 C 28.28125 98.199219 27.921875 97.359375 27.921875 96.441406 Z M 27.921875 96.441406 "/>
</svg>
